<svg width="42" height="42" viewBox="0 0 42 42" fill="none" xmlns="http://www.w3.org/2000/svg">
<circle cx="21" cy="21" r="21" fill="#B8B8B8"/>
<path d="M23.0112 29.9337H16.868C13.2752 29.9337 12 27.4137 12 25.0657V16.868C12 13.3663 13.3663 12 16.868 12H23.0112C26.513 12 27.8793 13.3663 27.8793 16.868V25.0657C27.8793 28.5674 26.513 29.9337 23.0112 29.9337ZM16.868 13.5383C14.2265 13.5383 13.5383 14.2265 13.5383 16.868V25.0657C13.5383 26.3105 13.9735 28.3954 16.868 28.3954H23.0112C25.6527 28.3954 26.3409 27.7072 26.3409 25.0657V16.868C26.3409 14.2265 25.6527 13.5383 23.0112 13.5383H16.868Z" fill="white"/>
<path d="M31.0062 27.1504C30.571 27.1504 30.0144 27.0087 29.3768 26.5634L26.6746 24.6709C26.4722 24.5292 26.3507 24.2964 26.3507 24.0434V17.8901C26.3507 17.637 26.4722 17.4043 26.6746 17.2626L29.3768 15.37C30.5811 14.53 31.4616 14.7729 31.8766 14.9854C32.2915 15.2081 33 15.785 33 17.2525V24.6709C33 26.1384 32.2915 26.7254 31.8766 26.9379C31.6843 27.0492 31.3807 27.1504 31.0062 27.1504ZM27.8789 23.6386L30.2573 25.2984C30.7127 25.6121 31.0366 25.6425 31.1681 25.5716C31.3098 25.5008 31.4616 25.2174 31.4616 24.6709V17.2626C31.4616 16.7059 31.2997 16.4327 31.1681 16.3618C31.0366 16.291 30.7127 16.3214 30.2573 16.6351L27.8789 18.2949V23.6386Z" fill="white"/>
<path d="M21.6146 20.7138C20.3596 20.7138 19.3375 19.6916 19.3375 18.4366C19.3375 17.1817 20.3596 16.1595 21.6146 16.1595C22.8696 16.1595 23.8917 17.1817 23.8917 18.4366C23.8917 19.6916 22.8696 20.7138 21.6146 20.7138ZM21.6146 17.6776C21.1997 17.6776 20.8556 18.0217 20.8556 18.4366C20.8556 18.8516 21.1997 19.1957 21.6146 19.1957C22.0296 19.1957 22.3737 18.8516 22.3737 18.4366C22.3737 18.0217 22.0296 17.6776 21.6146 17.6776Z" fill="white"/>
<path d="M11 31L31 11" stroke="white" stroke-width="1.5" stroke-linecap="round"/>
</svg>
