<svg width="40" height="40" viewBox="0 0 40 40" fill="none" xmlns="http://www.w3.org/2000/svg">
<circle cx="20" cy="20" r="20" fill="#246CE2"/>
<path d="M20 9.91669C19.2707 9.91669 18.5712 10.2064 18.0555 10.7221C17.5397 11.2379 17.25 11.9373 17.25 12.6667V20C17.25 20.7294 17.5397 21.4288 18.0555 21.9446C18.5712 22.4603 19.2707 22.75 20 22.75C20.7293 22.75 21.4288 22.4603 21.9445 21.9446C22.4603 21.4288 22.75 20.7294 22.75 20V12.6667C22.75 11.9373 22.4603 11.2379 21.9445 10.7221C21.4288 10.2064 20.7293 9.91669 20 9.91669V9.91669Z" stroke="white" stroke-width="1.5" stroke-linecap="round" stroke-linejoin="round"/>
<path d="M26.4167 18.1667V20C26.4167 21.7018 25.7406 23.3339 24.5373 24.5373C23.3339 25.7406 21.7018 26.4167 20 26.4167C18.2982 26.4167 16.6661 25.7406 15.4627 24.5373C14.2594 23.3339 13.5833 21.7018 13.5833 20V18.1667" stroke="white" stroke-width="1.5" stroke-linecap="round" stroke-linejoin="round"/>
<path d="M20 26.4167V30.0834" stroke="white" stroke-width="1.5" stroke-linecap="round" stroke-linejoin="round"/>
<path d="M16.3333 30.0833H23.6667" stroke="white" stroke-width="1.5" stroke-linecap="round" stroke-linejoin="round"/>
</svg>
