<svg width="40" height="40" viewBox="0 0 40 40" fill="none" xmlns="http://www.w3.org/2000/svg">
<circle cx="20" cy="20" r="20" fill="#246CE2"/>
<g clip-path="url(#clip0_1410_1869)">
<path d="M9.91666 9.91669L30.0833 30.0834" stroke="white" stroke-width="1.5" stroke-linecap="round" stroke-linejoin="round"/>
<path d="M22.75 17.5616V12.6666C22.7507 11.9847 22.4979 11.3268 22.0408 10.8207C21.5837 10.3146 20.9549 9.99635 20.2764 9.92781C19.5979 9.85927 18.9181 10.0453 18.369 10.4498C17.8199 10.8542 17.4407 11.4483 17.305 12.1166M17.25 17.25V20C17.2505 20.5435 17.412 21.0747 17.7142 21.5265C18.0164 21.9783 18.4457 22.3304 18.9479 22.5384C19.4501 22.7463 20.0027 22.8008 20.5358 22.6949C21.069 22.5889 21.5587 22.3274 21.9433 21.9433L17.25 17.25Z" stroke="white" stroke-width="1.5" stroke-linecap="round" stroke-linejoin="round"/>
<path d="M24.5833 24.5375C23.6885 25.4509 22.5411 26.0761 21.2885 26.3329C20.0358 26.5897 18.735 26.4664 17.553 25.9788C16.3709 25.4912 15.3614 24.6615 14.6542 23.5962C13.9469 22.531 13.574 21.2787 13.5833 20V18.1667M26.4167 18.1667V20C26.4163 20.3781 26.3826 20.7554 26.3158 21.1275" stroke="white" stroke-width="1.5" stroke-linecap="round" stroke-linejoin="round"/>
<path d="M20 26.4167V30.0834" stroke="white" stroke-width="1.5" stroke-linecap="round" stroke-linejoin="round"/>
<path d="M16.3333 30.0833H23.6667" stroke="white" stroke-width="1.5" stroke-linecap="round" stroke-linejoin="round"/>
</g>
<defs>
<clipPath id="clip0_1410_1869">
<rect width="22" height="22" fill="white" transform="translate(9 9)"/>
</clipPath>
</defs>
</svg>
