<svg width="40" height="40" viewBox="0 0 40 40" fill="none" xmlns="http://www.w3.org/2000/svg">
<circle cx="20" cy="20" r="20" fill="#696969"/>
<path d="M28.25 22.75C28.25 23.2362 28.0568 23.7025 27.713 24.0464C27.3692 24.3902 26.9029 24.5833 26.4167 24.5833H15.4167L11.75 28.25V13.5833C11.75 13.0971 11.9432 12.6308 12.287 12.287C12.6308 11.9432 13.0971 11.75 13.5833 11.75H26.4167C26.9029 11.75 27.3692 11.9432 27.713 12.287C28.0568 12.6308 28.25 13.0971 28.25 13.5833V22.75Z" stroke="white" stroke-width="1.5" stroke-linecap="round" stroke-linejoin="round"/>
<line x1="16.35" y1="15.95" x2="23.65" y2="15.95" stroke="white" stroke-width="1.5" stroke-linecap="round"/>
<line x1="16.35" y1="18.15" x2="23.65" y2="18.15" stroke="white" stroke-width="1.5" stroke-linecap="round"/>
<line x1="16.35" y1="20.35" x2="21.45" y2="20.35" stroke="white" stroke-width="1.5" stroke-linecap="round"/>
</svg>
