<svg width="40" height="40" viewBox="0 0 40 40" fill="none" xmlns="http://www.w3.org/2000/svg">
<circle cx="20" cy="20" r="20" fill="#DA1606"/>
<path d="M11.7675 22.7559L10.1099 21.0983C9.95538 20.9451 9.83458 20.7612 9.75524 20.5586C9.67589 20.3559 9.63974 20.139 9.64911 19.9215C9.65847 19.7041 9.71314 19.4911 9.80961 19.296C9.90608 19.1009 10.0422 18.9281 10.2093 18.7887C12.0943 17.2733 14.3085 16.2211 16.6739 15.7167C18.8572 15.23 21.1209 15.23 23.3043 15.7167C25.6795 16.2243 27.9017 17.2843 29.7909 18.8108C29.9575 18.9498 30.0934 19.122 30.1898 19.3163C30.2862 19.5107 30.3411 19.723 30.351 19.9397C30.3609 20.1565 30.3255 20.3729 30.2472 20.5752C30.1688 20.7775 30.0492 20.9613 29.8959 21.1149L28.2383 22.7725C27.9728 23.0433 27.6179 23.2083 27.2398 23.2367C26.8616 23.2652 26.486 23.1552 26.1829 22.9272C25.5825 22.4667 24.9319 22.0756 24.2436 21.7613C23.9715 21.6379 23.7404 21.4391 23.5779 21.1884C23.4153 20.9377 23.328 20.6457 23.3264 20.3469L23.3264 18.9435C21.1565 18.3467 18.8659 18.3467 16.696 18.9435L16.696 20.3469C16.6944 20.6457 16.6071 20.9377 16.4445 21.1884C16.2819 21.4391 16.0509 21.6379 15.7788 21.7613C15.0905 22.0756 14.4399 22.4667 13.8394 22.9272C13.5332 23.1577 13.1529 23.2676 12.7708 23.2361C12.3888 23.2045 12.0317 23.0336 11.7675 22.7559Z" stroke="white" stroke-width="1.5" stroke-linecap="round" stroke-linejoin="round"/>
</svg>
