<svg width="22" height="22" viewBox="0 0 22 22" fill="none" xmlns="http://www.w3.org/2000/svg">
<path d="M11.1549 0.30294C10.8475 0.417561 10.5448 0.628542 10.3706 0.844141C10.1917 1.0736 10.0082 1.44056 9.9715 1.65154C9.95324 1.74328 9.92574 1.82138 9.90726 1.82138C9.8934 1.82138 9.76514 1.7754 9.62742 1.72502C9.29258 1.59192 8.74676 1.5829 8.37518 1.70214C7.8661 1.86736 7.39816 2.30296 7.21006 2.78476C7.13218 2.97748 7.12756 3.33982 7.10468 7.4591L7.0818 11.9269L6.59098 11.2847C5.90238 10.3855 5.64564 10.1746 5.0171 10.0093C4.36568 9.83972 3.7235 10.014 3.25094 10.4909C2.7555 10.9817 2.57664 11.7341 2.78762 12.4128C2.92072 12.8394 4.76014 16.2386 5.53542 17.4863C6.98038 19.8165 8.07664 20.8395 9.6822 21.3671C10.5675 21.6561 11.4759 21.7754 12.7464 21.78C14.8427 21.7846 16.2831 21.2709 17.4436 20.1102C18.1958 19.3578 18.6545 18.5552 18.9939 17.3945C19.292 16.3715 19.2784 16.6331 19.292 10.7936C19.3103 5.02304 19.3103 5.00456 19.0579 4.47722C18.8929 4.12412 18.6681 3.8808 18.3561 3.7158C17.8607 3.44982 17.2553 3.40846 16.7413 3.6058C16.5167 3.6883 16.5075 3.6883 16.5075 3.61042C16.5075 3.31232 16.3975 2.56454 16.3194 2.3397C16.0578 1.56904 15.4431 1.13322 14.6267 1.13322C14.3286 1.13322 13.8239 1.24784 13.6726 1.3442C13.6129 1.38556 13.5579 1.40844 13.5533 1.3992C13.5441 1.38996 13.4798 1.27534 13.4112 1.14224C13.2416 0.830282 12.9065 0.518322 12.5717 0.362341C12.219 0.201962 11.5218 0.169842 11.1549 0.30294ZM12.173 1.22034C12.384 1.3167 12.5767 1.50942 12.6639 1.70654C12.7096 1.81654 12.7281 2.67894 12.7464 5.82582L12.7692 9.812L12.8977 9.922C13.072 10.0734 13.3382 10.0734 13.5124 9.922L13.6409 9.812L13.6638 6.26164C13.682 3.11938 13.6959 2.69742 13.7601 2.5553C13.9161 2.22508 14.1592 2.09198 14.6179 2.09198C15.0355 2.09198 15.2097 2.19296 15.3839 2.53242L15.5214 2.80764L15.5443 6.50034C15.5626 9.4545 15.5811 10.2159 15.6268 10.2984C15.7874 10.5829 16.2554 10.5598 16.4435 10.2617C16.4663 10.2203 16.4938 9.11944 16.5077 7.66986L16.5306 5.1469L16.6591 4.88092C16.8379 4.5232 17.0306 4.42222 17.4893 4.4451C18.0444 4.4726 18.2554 4.72494 18.3471 5.45424C18.3792 5.7112 18.3885 7.55964 18.3746 10.8854C18.3564 15.7753 18.3564 15.9403 18.26 16.4311C18.0858 17.3532 17.7738 18.1421 17.3241 18.812C17.0764 19.1743 16.5167 19.734 16.1498 19.9817C15.0856 20.6974 13.5854 20.977 11.737 20.8074C10.0489 20.656 8.95268 20.1973 8.03968 19.2707C7.29652 18.5183 6.67282 17.6147 5.6452 15.8028C4.9159 14.5277 4.01214 12.8625 3.79654 12.3992C3.42958 11.6149 3.7873 10.9039 4.54872 10.9039C4.83318 10.9039 5.0534 10.9817 5.26438 11.1606C5.34688 11.2295 5.81944 11.8213 6.3195 12.4817C6.81956 13.1424 7.28288 13.7064 7.34712 13.7432C7.49848 13.8257 7.77832 13.7799 7.90218 13.6561C7.99854 13.5643 7.99854 13.5368 8.02142 8.38992C8.0443 3.25688 8.0443 3.22014 8.14066 3.03666C8.3655 2.60546 8.95708 2.4266 9.3929 2.65584C9.50752 2.71546 9.6635 2.83932 9.73698 2.93568L9.8791 3.11454L9.90198 6.44028L9.92486 9.76602L10.0762 9.89912C10.2872 10.0872 10.5213 10.0826 10.7092 9.88988L10.8423 9.75238L10.8651 5.75234L10.888 1.7523L10.9936 1.58246C11.2466 1.1792 11.7511 1.02322 12.173 1.22034Z" fill="black" stroke="white" stroke-width="0.1"/>
</svg>
