<svg width="40" height="40" viewBox="0 0 40 40" fill="none" xmlns="http://www.w3.org/2000/svg">
<circle cx="20" cy="20" r="20" fill="#696969"/>
<path d="M19.1549 9.30294C18.8475 9.41756 18.5448 9.62854 18.3706 9.84414C18.1917 10.0736 18.0082 10.4406 17.9715 10.6515C17.9532 10.7433 17.9257 10.8214 17.9073 10.8214C17.8934 10.8214 17.7651 10.7754 17.6274 10.725C17.2926 10.5919 16.7468 10.5829 16.3752 10.7021C15.8661 10.8674 15.3982 11.303 15.2101 11.7848C15.1322 11.9775 15.1276 12.3398 15.1047 16.4591L15.0818 20.9269L14.591 20.2847C13.9024 19.3855 13.6456 19.1746 13.0171 19.0093C12.3657 18.8397 11.7235 19.014 11.2509 19.4909C10.7555 19.9817 10.5766 20.7341 10.7876 21.4128C10.9207 21.8394 12.7601 25.2386 13.5354 26.4863C14.9804 28.8165 16.0766 29.8395 17.6822 30.3671C18.5675 30.6561 19.4759 30.7754 20.7464 30.78C22.8427 30.7846 24.2831 30.2709 25.4436 29.1102C26.1958 28.3578 26.6545 27.5552 26.9939 26.3945C27.292 25.3715 27.2784 25.6331 27.292 19.7936C27.3103 14.023 27.3103 14.0046 27.0579 13.4772C26.8929 13.1241 26.6681 12.8808 26.3561 12.7158C25.8607 12.4498 25.2553 12.4085 24.7413 12.6058C24.5167 12.6883 24.5075 12.6883 24.5075 12.6104C24.5075 12.3123 24.3975 11.5645 24.3194 11.3397C24.0578 10.569 23.4431 10.1332 22.6267 10.1332C22.3286 10.1332 21.8239 10.2478 21.6726 10.3442C21.6129 10.3856 21.5579 10.4084 21.5533 10.3992C21.5441 10.39 21.4798 10.2753 21.4112 10.1422C21.2416 9.83028 20.9065 9.51832 20.5717 9.36234C20.219 9.20196 19.5218 9.16984 19.1549 9.30294ZM20.173 10.2203C20.384 10.3167 20.5767 10.5094 20.6639 10.7065C20.7096 10.8165 20.7281 11.6789 20.7464 14.8258L20.7692 18.812L20.8977 18.922C21.072 19.0734 21.3382 19.0734 21.5124 18.922L21.6409 18.812L21.6638 15.2616C21.682 12.1194 21.6959 11.6974 21.7601 11.5553C21.9161 11.2251 22.1592 11.092 22.6179 11.092C23.0355 11.092 23.2097 11.193 23.3839 11.5324L23.5214 11.8076L23.5443 15.5003C23.5626 18.4545 23.5811 19.2159 23.6268 19.2984C23.7874 19.5829 24.2554 19.5598 24.4435 19.2617C24.4663 19.2203 24.4938 18.1194 24.5077 16.6699L24.5306 14.1469L24.6591 13.8809C24.8379 13.5232 25.0306 13.4222 25.4893 13.4451C26.0444 13.4726 26.2554 13.7249 26.3471 14.4542C26.3792 14.7112 26.3885 16.5596 26.3746 19.8854C26.3564 24.7753 26.3564 24.9403 26.26 25.4311C26.0858 26.3532 25.7738 27.1421 25.3241 27.812C25.0764 28.1743 24.5167 28.734 24.1498 28.9817C23.0856 29.6974 21.5854 29.977 19.737 29.8074C18.0489 29.656 16.9527 29.1973 16.0397 28.2707C15.2965 27.5183 14.6728 26.6147 13.6452 24.8028C12.9159 23.5277 12.0121 21.8625 11.7965 21.3992C11.4296 20.6149 11.7873 19.9039 12.5487 19.9039C12.8332 19.9039 13.0534 19.9817 13.2644 20.1606C13.3469 20.2295 13.8194 20.8213 14.3195 21.4817C14.8196 22.1424 15.2829 22.7064 15.3471 22.7432C15.4985 22.8257 15.7783 22.7799 15.9022 22.6561C15.9985 22.5643 15.9985 22.5368 16.0214 17.3899C16.0443 12.2569 16.0443 12.2201 16.1407 12.0367C16.3655 11.6055 16.9571 11.4266 17.3929 11.6558C17.5075 11.7155 17.6635 11.8393 17.737 11.9357L17.8791 12.1145L17.902 15.4403L17.9249 18.766L18.0762 18.8991C18.2872 19.0872 18.5213 19.0826 18.7092 18.8899L18.8423 18.7524L18.8651 14.7523L18.888 10.7523L18.9936 10.5825C19.2466 10.1792 19.7511 10.0232 20.173 10.2203Z" fill="white" stroke="white" stroke-width="0.4"/>
</svg>
