<svg width="40" height="40" viewBox="0 0 40 40" fill="none" xmlns="http://www.w3.org/2000/svg">
<circle cx="20" cy="20" r="20" fill="#696969"/>
<path d="M24.5834 28.25V26.4167C24.5834 25.4442 24.197 24.5116 23.5094 23.8239C22.8218 23.1363 21.8891 22.75 20.9167 22.75H13.5834C12.6109 22.75 11.6783 23.1363 10.9906 23.8239C10.303 24.5116 9.91669 25.4442 9.91669 26.4167V28.25" stroke="white" stroke-width="1.5" stroke-linecap="round" stroke-linejoin="round"/>
<path d="M17.25 19.0833C19.275 19.0833 20.9166 17.4417 20.9166 15.4167C20.9166 13.3916 19.275 11.75 17.25 11.75C15.2249 11.75 13.5833 13.3916 13.5833 15.4167C13.5833 17.4417 15.2249 19.0833 17.25 19.0833Z" stroke="white" stroke-width="1.5" stroke-linecap="round" stroke-linejoin="round"/>
<path d="M30.0833 28.25V26.4166C30.0827 25.6042 29.8123 24.815 29.3146 24.1729C28.8168 23.5308 28.1199 23.0722 27.3333 22.8691" stroke="white" stroke-width="1.5" stroke-linecap="round" stroke-linejoin="round"/>
<path d="M23.6667 11.8691C24.4554 12.0711 25.1545 12.5298 25.6537 13.1729C26.1529 13.8161 26.4239 14.6071 26.4239 15.4212C26.4239 16.2354 26.1529 17.0264 25.6537 17.6695C25.1545 18.3127 24.4554 18.7714 23.6667 18.9733" stroke="white" stroke-width="1.5" stroke-linecap="round" stroke-linejoin="round"/>
</svg>
