<svg width="40" height="40" viewBox="0 0 40 40" fill="none" xmlns="http://www.w3.org/2000/svg">
<circle cx="20" cy="20" r="20" fill="#246CE2"/>
<g clip-path="url(#clip0_1410_1868)">
<path d="M18.7717 13.5833H21.8333C22.3196 13.5833 22.7859 13.7765 23.1297 14.1203C23.4735 14.4641 23.6667 14.9304 23.6667 15.4166V18.4783L24.5833 19.395L30.0833 15.4166V24.5833M23.6667 23.6666V24.5833C23.6667 25.0695 23.4735 25.5359 23.1297 25.8797C22.7859 26.2235 22.3196 26.4166 21.8333 26.4166H11.75C11.2638 26.4166 10.7974 26.2235 10.4536 25.8797C10.1098 25.5359 9.91666 25.0695 9.91666 24.5833V15.4166C9.91666 14.9304 10.1098 14.4641 10.4536 14.1203C10.7974 13.7765 11.2638 13.5833 11.75 13.5833H13.5833L23.6667 23.6666Z" stroke="white" stroke-width="1.5" stroke-linecap="round" stroke-linejoin="round"/>
<path d="M9.91666 9.91669L30.0833 30.0834" stroke="white" stroke-width="1.5" stroke-linecap="round" stroke-linejoin="round"/>
</g>
<defs>
<clipPath id="clip0_1410_1868">
<rect width="22" height="22" fill="white" transform="translate(9 9)"/>
</clipPath>
</defs>
</svg>
