<svg width="144" height="32" viewBox="0 0 144 32" fill="none" xmlns="http://www.w3.org/2000/svg">
<g clip-path="url(#clip0_930_351)">
<path fill-rule="evenodd" clip-rule="evenodd" d="M18.0164 14.3393V18.0309H17.9277V18.4684H0.736901V13.0987H9.21573L0.0546875 3.93761L3.85169 0.140625L12.6467 8.93559V0.840052H18.0164V14.3054L18.0334 14.3223L18.0164 14.3393Z" fill="#2D87EF"/>
<mask id="mask0_930_351" style="mask-type:alpha" maskUnits="userSpaceOnUse" x="0" y="0" width="19" height="19">
<path fill-rule="evenodd" clip-rule="evenodd" d="M18.0164 14.3393V18.0308H17.9277V18.4684H0.736868V13.0987H9.21573L0.0546875 3.93761L3.85169 0.140625L12.6467 8.93562V0.839951H18.0164V14.3054L18.0334 14.3223L18.0164 14.3393Z" fill="#2B7AF5"/>
</mask>
<g mask="url(#mask0_930_351)">
<g opacity="0.26" filter="url(#filter0_f_930_351)">
<path d="M11.2891 11.2422H20.7596V23.3774H11.2891V11.2422Z" fill="black"/>
</g>
</g>
<path fill-rule="evenodd" clip-rule="evenodd" d="M17.9877 21.8583L28.1307 32.0012L31.9276 28.2042L22.2104 18.4869H29.8079V13.1172H12.6172V18.4869H12.6179L12.6179 30.4029H17.9877V21.8583Z" fill="#010519"/>
</g>
<path d="M40.72 7.368L47.056 7.248V8.28L44.704 8.832L44.968 8.376V22.68C44.968 23.464 44.888 24.152 44.728 24.744C44.584 25.352 44.344 25.856 44.008 26.256C43.688 26.656 43.264 26.96 42.736 27.168C42.224 27.376 41.6 27.48 40.864 27.48C40.64 27.48 40.416 27.464 40.192 27.432C39.968 27.416 39.736 27.392 39.496 27.36L39.664 25.92C39.808 25.936 39.944 25.944 40.072 25.944C40.2 25.96 40.336 25.968 40.48 25.968C41.392 25.968 42.04 25.728 42.424 25.248C42.808 24.784 43 24.048 43 23.04V8.376L43.288 8.784L40.72 8.4V7.368ZM54.2886 24.216C53.2326 24.216 52.3606 23.888 51.6726 23.232C50.9846 22.576 50.6406 21.568 50.6406 20.208V12.552L50.8806 12.888L48.7446 12.432V11.4L52.5606 11.256V19.872C52.5606 20.832 52.7846 21.544 53.2326 22.008C53.6806 22.472 54.2806 22.704 55.0326 22.704C55.6246 22.704 56.2646 22.544 56.9526 22.224C57.6406 21.904 58.3206 21.408 58.9926 20.736L58.8486 21.168V12.504L59.0886 12.888L56.9526 12.432V11.4L60.7686 11.232V22.824L60.4806 22.512L62.6406 22.92V23.976L59.2806 24.12L58.9926 21.744L59.2566 21.84C58.4726 22.656 57.6406 23.256 56.7606 23.64C55.8966 24.024 55.0726 24.216 54.2886 24.216ZM67.2994 14.4C67.2994 14.912 67.4674 15.312 67.8034 15.6C68.1394 15.888 68.5714 16.128 69.0994 16.32C69.6274 16.496 70.1874 16.672 70.7794 16.848C71.3714 17.024 71.9314 17.24 72.4594 17.496C72.9874 17.752 73.4194 18.104 73.7554 18.552C74.0914 19 74.2594 19.592 74.2594 20.328C74.2594 21.176 74.0274 21.888 73.5634 22.464C73.0994 23.04 72.4674 23.48 71.6674 23.784C70.8834 24.072 70.0034 24.216 69.0274 24.216C68.4354 24.216 67.8274 24.168 67.2034 24.072C66.5794 23.976 65.9394 23.84 65.2834 23.664L65.4514 20.448H66.6754L66.9154 22.8L66.6994 22.536C67.0674 22.632 67.4674 22.712 67.8994 22.776C68.3314 22.84 68.7314 22.872 69.0994 22.872C69.6754 22.872 70.2034 22.792 70.6834 22.632C71.1794 22.456 71.5794 22.208 71.8834 21.888C72.1874 21.552 72.3394 21.136 72.3394 20.64C72.3394 20.112 72.1714 19.696 71.8354 19.392C71.5154 19.088 71.0914 18.84 70.5634 18.648C70.0354 18.456 69.4754 18.28 68.8834 18.12C68.3074 17.944 67.7554 17.728 67.2274 17.472C66.6994 17.2 66.2674 16.848 65.9314 16.416C65.5954 15.984 65.4274 15.392 65.4274 14.64C65.4274 13.824 65.6354 13.16 66.0514 12.648C66.4834 12.12 67.0434 11.736 67.7314 11.496C68.4354 11.24 69.1874 11.112 69.9874 11.112C70.5314 11.112 71.1314 11.168 71.7874 11.28C72.4434 11.392 73.1154 11.56 73.8034 11.784L73.6834 14.496H72.4594L72.0994 12.504L72.3874 12.84C71.5554 12.6 70.7714 12.48 70.0354 12.48C69.2514 12.48 68.5954 12.648 68.0674 12.984C67.5554 13.304 67.2994 13.776 67.2994 14.4ZM81.3044 24.216C80.4724 24.216 79.8164 23.96 79.3364 23.448C78.8564 22.92 78.6164 22.128 78.6164 21.072V12.36L78.9284 12.672H76.4564V11.616L78.9524 11.256L78.6164 11.64V8.472L80.5364 8.16V11.64L80.2724 11.328H84.0404L83.9684 12.672H80.2724L80.5364 12.36V20.808C80.5364 21.48 80.6644 21.968 80.9204 22.272C81.1924 22.576 81.5684 22.728 82.0484 22.728C82.3364 22.728 82.6484 22.68 82.9844 22.584C83.3204 22.488 83.6804 22.352 84.0644 22.176L84.4724 23.28C83.3364 23.904 82.2804 24.216 81.3044 24.216ZM105.792 8.28L103.392 8.832L103.704 8.304V22.896L103.392 22.464L105.792 22.968V24H99.8157V22.968L102.264 22.464L101.88 22.896V9.432L102.192 9.456L96.7437 19.632L95.4237 19.728L90.1437 9.408L90.4317 9.384V22.896L90.1437 22.488L92.5197 22.968V24H86.7357V22.968L89.1357 22.464L88.7997 22.896V8.304L89.1357 8.832L86.7357 8.4V7.368L91.2237 7.248L96.4317 17.784H96.1437L101.52 7.368L105.792 7.248V8.28ZM113.88 24.216C112.808 24.216 111.856 23.976 111.024 23.496C110.208 23 109.568 22.28 109.104 21.336C108.64 20.392 108.408 19.24 108.408 17.88C108.408 16.488 108.648 15.288 109.128 14.28C109.608 13.272 110.288 12.496 111.168 11.952C112.048 11.392 113.08 11.112 114.264 11.112C115.384 11.112 116.304 11.352 117.024 11.832C117.76 12.296 118.304 12.944 118.656 13.776C119.024 14.608 119.208 15.56 119.208 16.632C119.208 16.808 119.2 16.984 119.184 17.16C119.168 17.336 119.144 17.552 119.112 17.808H109.872V16.44H117.432L117.216 16.584C117.232 15.864 117.144 15.2 116.952 14.592C116.76 13.984 116.432 13.496 115.968 13.128C115.504 12.76 114.888 12.576 114.12 12.576C113.304 12.576 112.616 12.792 112.056 13.224C111.496 13.656 111.08 14.248 110.808 15C110.536 15.752 110.4 16.624 110.4 17.616C110.4 18.672 110.552 19.584 110.856 20.352C111.16 21.104 111.6 21.688 112.176 22.104C112.768 22.52 113.488 22.728 114.336 22.728C114.928 22.728 115.576 22.616 116.28 22.392C116.984 22.152 117.712 21.792 118.464 21.312L119.16 22.392C118.264 23 117.368 23.456 116.472 23.76C115.576 24.064 114.712 24.216 113.88 24.216ZM127.725 24.216C126.653 24.216 125.701 23.976 124.869 23.496C124.053 23 123.413 22.28 122.949 21.336C122.485 20.392 122.253 19.24 122.253 17.88C122.253 16.488 122.493 15.288 122.973 14.28C123.453 13.272 124.133 12.496 125.013 11.952C125.893 11.392 126.925 11.112 128.109 11.112C129.229 11.112 130.149 11.352 130.869 11.832C131.605 12.296 132.149 12.944 132.501 13.776C132.869 14.608 133.053 15.56 133.053 16.632C133.053 16.808 133.045 16.984 133.029 17.16C133.013 17.336 132.989 17.552 132.957 17.808H123.717V16.44H131.277L131.061 16.584C131.077 15.864 130.989 15.2 130.797 14.592C130.605 13.984 130.277 13.496 129.813 13.128C129.349 12.76 128.733 12.576 127.965 12.576C127.149 12.576 126.461 12.792 125.901 13.224C125.341 13.656 124.925 14.248 124.653 15C124.381 15.752 124.245 16.624 124.245 17.616C124.245 18.672 124.397 19.584 124.701 20.352C125.005 21.104 125.445 21.688 126.021 22.104C126.613 22.52 127.333 22.728 128.181 22.728C128.773 22.728 129.421 22.616 130.125 22.392C130.829 22.152 131.557 21.792 132.309 21.312L133.005 22.392C132.109 23 131.213 23.456 130.317 23.76C129.421 24.064 128.557 24.216 127.725 24.216ZM140.106 24.216C139.274 24.216 138.618 23.96 138.138 23.448C137.658 22.92 137.418 22.128 137.418 21.072V12.36L137.73 12.672H135.258V11.616L137.754 11.256L137.418 11.64V8.472L139.338 8.16V11.64L139.074 11.328H142.842L142.77 12.672H139.074L139.338 12.36V20.808C139.338 21.48 139.466 21.968 139.722 22.272C139.994 22.576 140.37 22.728 140.85 22.728C141.138 22.728 141.45 22.68 141.786 22.584C142.122 22.488 142.482 22.352 142.866 22.176L143.274 23.28C142.138 23.904 141.082 24.216 140.106 24.216Z" fill="black"/>
<defs>
<filter id="filter0_f_930_351" x="4.8167" y="4.76983" width="22.4152" height="25.08" filterUnits="userSpaceOnUse" color-interpolation-filters="sRGB">
<feFlood flood-opacity="0" result="BackgroundImageFix"/>
<feBlend mode="normal" in="SourceGraphic" in2="BackgroundImageFix" result="shape"/>
<feGaussianBlur stdDeviation="3.23618" result="effect1_foregroundBlur_930_351"/>
</filter>
<clipPath id="clip0_930_351">
<rect width="32" height="32" fill="white"/>
</clipPath>
</defs>
</svg>
