<svg width="154" height="32" viewBox="0 0 154 32" fill="none" xmlns="http://www.w3.org/2000/svg">
<g clip-path="url(#clip0_363_9)">
<path fill-rule="evenodd" clip-rule="evenodd" d="M18.0164 14.3393V18.0309H17.9277V18.4684H0.736901V13.0987H9.21573L0.0546875 3.93761L3.85169 0.140625L12.6467 8.93559V0.840052H18.0164V14.3054L18.0334 14.3223L18.0164 14.3393Z" fill="#2D87EF"/>
<mask id="mask0_363_9" style="mask-type:alpha" maskUnits="userSpaceOnUse" x="0" y="0" width="19" height="19">
<path fill-rule="evenodd" clip-rule="evenodd" d="M18.0164 14.3393V18.0308H17.9277V18.4684H0.736868V13.0987H9.21573L0.0546875 3.93761L3.85169 0.140625L12.6467 8.93561V0.839951H18.0164V14.3054L18.0334 14.3223L18.0164 14.3393Z" fill="#2B7AF5"/>
</mask>
<g mask="url(#mask0_363_9)">
<g opacity="0.26" filter="url(#filter0_f_363_9)">
<path d="M11.2891 11.2422H20.7596V23.3774H11.2891V11.2422Z" fill="black"/>
</g>
</g>
<path fill-rule="evenodd" clip-rule="evenodd" d="M17.9877 21.8583L28.1307 32.0012L31.9276 28.2042L22.2104 18.4869H29.8079V13.1172H12.6172V18.4869H12.6179L12.6179 30.4029H17.9877V21.8583Z" fill="#010519"/>
</g>
<path d="M47.296 8.28L44.944 8.808L45.208 8.472V22.824L44.944 22.488L47.296 22.968V24H41.176V22.968L43.504 22.488L43.24 22.824V8.472L43.552 8.832L41.176 8.4V7.368L47.296 7.248V8.28ZM50.0695 24V22.968L52.2295 22.488L51.9415 22.848V12.528L52.2295 12.888L50.0695 12.432V11.4L53.4295 11.232L53.6935 13.584L53.4295 13.488C54.2295 12.672 55.0615 12.072 55.9255 11.688C56.8055 11.304 57.6375 11.112 58.4215 11.112C59.4775 11.112 60.3495 11.44 61.0375 12.096C61.7415 12.736 62.0855 13.736 62.0695 15.096V22.848L61.8295 22.512L63.9415 22.968V24H58.3495V22.968L60.4375 22.512L60.1495 22.872V15.504C60.1495 14.512 59.9255 13.784 59.4775 13.32C59.0295 12.856 58.4295 12.624 57.6775 12.624C57.0855 12.624 56.4375 12.784 55.7335 13.104C55.0455 13.424 54.3655 13.92 53.6935 14.592L53.8615 14.208V22.872L53.6215 22.536L55.6615 22.968V24H50.0695ZM65.977 24V22.968L68.137 22.488L67.849 22.848V12.528L68.137 12.888L65.977 12.432V11.4L69.337 11.232L69.601 13.584L69.337 13.488C70.137 12.672 70.969 12.072 71.833 11.688C72.713 11.304 73.545 11.112 74.329 11.112C75.385 11.112 76.257 11.44 76.945 12.096C77.649 12.736 77.993 13.736 77.977 15.096V22.848L77.737 22.512L79.849 22.968V24H74.257V22.968L76.345 22.512L76.057 22.872V15.504C76.057 14.512 75.833 13.784 75.385 13.32C74.937 12.856 74.337 12.624 73.585 12.624C72.993 12.624 72.345 12.784 71.641 13.104C70.953 13.424 70.273 13.92 69.601 14.592L69.769 14.208V22.872L69.529 22.536L71.569 22.968V24H65.977ZM88.0285 11.112C89.7885 11.112 91.1645 11.664 92.1565 12.768C93.1645 13.872 93.6685 15.432 93.6685 17.448C93.6685 18.808 93.4205 20 92.9245 21.024C92.4445 22.032 91.7565 22.816 90.8605 23.376C89.9645 23.936 88.8845 24.216 87.6205 24.216C85.8925 24.216 84.5405 23.68 83.5645 22.608C82.5885 21.52 82.1005 19.96 82.1005 17.928C82.1005 16.52 82.3325 15.312 82.7965 14.304C83.2765 13.28 83.9565 12.496 84.8365 11.952C85.7325 11.392 86.7965 11.112 88.0285 11.112ZM87.9325 12.528C86.7005 12.528 85.7565 12.992 85.1005 13.92C84.4445 14.848 84.1165 16.152 84.1165 17.832C84.1165 19.48 84.4285 20.72 85.0525 21.552C85.6765 22.384 86.5725 22.8 87.7405 22.8C88.5885 22.8 89.3005 22.592 89.8765 22.176C90.4685 21.744 90.9085 21.136 91.1965 20.352C91.5005 19.568 91.6525 18.632 91.6525 17.544C91.6525 15.912 91.3245 14.672 90.6685 13.824C90.0285 12.96 89.1165 12.528 87.9325 12.528ZM115.729 8.28L113.329 8.832L113.641 8.304V22.896L113.329 22.464L115.729 22.968V24H109.753V22.968L112.201 22.464L111.817 22.896V9.432L112.129 9.456L106.681 19.632L105.361 19.728L100.081 9.408L100.369 9.384V22.896L100.081 22.488L102.457 22.968V24H96.6732V22.968L99.0732 22.464L98.7372 22.896V8.304L99.0732 8.832L96.6732 8.4V7.368L101.161 7.248L106.369 17.784H106.081L111.457 7.368L115.729 7.248V8.28ZM123.818 24.216C122.746 24.216 121.794 23.976 120.962 23.496C120.146 23 119.506 22.28 119.042 21.336C118.578 20.392 118.346 19.24 118.346 17.88C118.346 16.488 118.586 15.288 119.066 14.28C119.546 13.272 120.226 12.496 121.106 11.952C121.986 11.392 123.018 11.112 124.202 11.112C125.322 11.112 126.242 11.352 126.962 11.832C127.698 12.296 128.242 12.944 128.594 13.776C128.962 14.608 129.146 15.56 129.146 16.632C129.146 16.808 129.138 16.984 129.122 17.16C129.106 17.336 129.082 17.552 129.05 17.808H119.81V16.44H127.37L127.154 16.584C127.17 15.864 127.082 15.2 126.89 14.592C126.698 13.984 126.37 13.496 125.906 13.128C125.442 12.76 124.826 12.576 124.058 12.576C123.242 12.576 122.554 12.792 121.994 13.224C121.434 13.656 121.018 14.248 120.746 15C120.474 15.752 120.338 16.624 120.338 17.616C120.338 18.672 120.49 19.584 120.794 20.352C121.098 21.104 121.538 21.688 122.114 22.104C122.706 22.52 123.426 22.728 124.274 22.728C124.866 22.728 125.514 22.616 126.218 22.392C126.922 22.152 127.65 21.792 128.402 21.312L129.098 22.392C128.202 23 127.306 23.456 126.41 23.76C125.514 24.064 124.65 24.216 123.818 24.216ZM137.663 24.216C136.591 24.216 135.639 23.976 134.807 23.496C133.991 23 133.351 22.28 132.887 21.336C132.423 20.392 132.191 19.24 132.191 17.88C132.191 16.488 132.431 15.288 132.911 14.28C133.391 13.272 134.071 12.496 134.951 11.952C135.831 11.392 136.863 11.112 138.047 11.112C139.167 11.112 140.087 11.352 140.807 11.832C141.543 12.296 142.087 12.944 142.439 13.776C142.807 14.608 142.991 15.56 142.991 16.632C142.991 16.808 142.983 16.984 142.967 17.16C142.951 17.336 142.927 17.552 142.895 17.808H133.655V16.44H141.215L140.999 16.584C141.015 15.864 140.927 15.2 140.735 14.592C140.543 13.984 140.215 13.496 139.751 13.128C139.287 12.76 138.671 12.576 137.903 12.576C137.087 12.576 136.399 12.792 135.839 13.224C135.279 13.656 134.863 14.248 134.591 15C134.319 15.752 134.183 16.624 134.183 17.616C134.183 18.672 134.335 19.584 134.639 20.352C134.943 21.104 135.383 21.688 135.959 22.104C136.551 22.52 137.271 22.728 138.119 22.728C138.711 22.728 139.359 22.616 140.063 22.392C140.767 22.152 141.495 21.792 142.247 21.312L142.943 22.392C142.047 23 141.151 23.456 140.255 23.76C139.359 24.064 138.495 24.216 137.663 24.216ZM150.044 24.216C149.212 24.216 148.556 23.96 148.076 23.448C147.596 22.92 147.356 22.128 147.356 21.072V12.36L147.668 12.672H145.196V11.616L147.692 11.256L147.356 11.64V8.472L149.276 8.16V11.64L149.012 11.328H152.78L152.708 12.672H149.012L149.276 12.36V20.808C149.276 21.48 149.404 21.968 149.66 22.272C149.932 22.576 150.308 22.728 150.788 22.728C151.076 22.728 151.388 22.68 151.724 22.584C152.06 22.488 152.42 22.352 152.804 22.176L153.212 23.28C152.076 23.904 151.02 24.216 150.044 24.216Z" fill="black"/>
<defs>
<filter id="filter0_f_363_9" x="4.8167" y="4.76983" width="22.4152" height="25.08" filterUnits="userSpaceOnUse" color-interpolation-filters="sRGB">
<feFlood flood-opacity="0" result="BackgroundImageFix"/>
<feBlend mode="normal" in="SourceGraphic" in2="BackgroundImageFix" result="shape"/>
<feGaussianBlur stdDeviation="3.23618" result="effect1_foregroundBlur_363_9"/>
</filter>
<clipPath id="clip0_363_9">
<rect width="32" height="32" fill="white"/>
</clipPath>
</defs>
</svg>
